<svg viewBox="0 0 69 92" class="h-6" xmlns="http://www.w3.org/2000/svg" fill="currentColor">
<path d="M38.3602 31.2286C38.417 31.2855 38.4739 31.3993 38.5307 31.4562L38.5876 31.5131C38.6444 31.57 38.6444 31.6269 38.7013 31.6839C38.7582 31.7408 38.815 31.7408 38.815 31.7977L45.3532 38.3418C45.6375 38.6263 45.9786 38.7401 46.3766 38.7401H46.4334C46.6609 38.8539 46.8883 38.9108 47.1725 38.9108L66.1049 38.4556C67.6968 38.3987 68.9476 37.1468 68.9476 35.5534V24.1724C68.9476 19.3354 68.2085 15.6935 66.5598 12.962C66.5598 12.5637 58.2022 4.0848 58.0885 3.97099C54.8478 1.01191 49.731 -0.126193 42.4537 0.499765L19.0867 2.32073C6.46509 3.40193 0.0405884 8.69412 0.0405884 18.0266V66.1115C0.0405884 69.5259 0.836544 72.7695 2.3716 74.875C3.90666 76.9804 11.4682 84.4919 12.8327 85.4593L12.8896 85.5162C13.0602 85.6301 13.1739 85.7439 13.4013 85.8008C16.5851 87.8493 20.7923 89.1582 25.966 89.6134L49.0487 91.4913C50.0721 91.6051 51.0955 91.6051 52.0051 91.6051C57.2357 91.6051 61.3292 90.2963 64.2287 87.6217C67.3557 84.7196 68.9476 80.3948 68.9476 74.6473V58.7139C68.9476 58.4862 68.8908 58.3155 68.8339 58.0879C68.8908 57.6327 68.7771 57.2343 68.4359 56.8929L61.6135 50.1212C61.4429 49.9504 61.2723 49.8366 61.0449 49.7797C60.6469 49.5521 60.249 49.4383 59.7373 49.4383L40.8049 49.1538C40.0658 49.1538 39.2698 49.4383 38.7582 50.0074C38.1896 50.5764 37.9053 51.2593 37.9053 52.0559V65.9408L31.3103 65.7132V26.6193L37.8485 26.2779V29.5784C37.8485 30.1474 38.0191 30.7165 38.3602 31.2286ZM62.1251 12.1084C62.2388 12.2222 62.4094 12.3361 62.5231 12.4499C64.911 14.6692 66.0481 18.368 66.0481 24.1155V34.017L62.3526 30.0905C62.4663 29.806 62.5231 29.4645 62.5231 29.1231V17.7421C62.58 15.6366 62.4663 13.7587 62.1251 12.1084ZM47.2294 35.9517L43.6476 32.3667L59.7941 31.9684C59.9078 31.9684 60.0784 31.9684 60.1921 31.9115L63.6033 35.5534L47.2294 35.9517ZM66.1049 58.8277V74.7611C66.1049 79.655 64.8541 83.2969 62.2957 85.5731C59.5099 88.1339 55.189 89.1582 49.2761 88.646L26.1934 86.8251C21.4177 86.4267 17.6085 85.2886 14.8795 83.5246L13.6855 82.3295C15.5049 82.7848 17.4379 83.1262 19.5984 83.2969L42.6811 85.1748C43.7044 85.2886 44.7278 85.2886 45.6375 85.2886C50.868 85.2886 54.9615 83.9798 57.8611 81.3052C60.9881 78.4031 62.58 74.0783 62.58 68.3308V55.2426L66.1049 58.7139C66.1049 58.7708 66.1049 58.8277 66.1049 58.8277ZM24.9426 65.3718V22.01L28.6381 25.6519C28.5244 25.9364 28.4676 26.2779 28.4676 26.5624V65.5425L24.9426 65.3718ZM31.1966 23.7171C31.0829 23.7171 30.9123 23.774 30.7986 23.774L27.1031 20.0752L37.8485 19.563V23.3757L31.1966 23.7171Z"/>
</svg>
