<svg width="271" height="196" viewBox="0 0 271 196" fill="none" xmlns="http://www.w3.org/2000/svg">
<path d="M44.9074 22.4208C42.5746 20.088 38.6865 19.3104 33.0488 19.6992L14.5803 21.2544C4.86011 22.032 0 26.1145 0 33.1131V71.022C0 78.7982 5.24892 83.2695 14.9691 84.0471L33.2432 85.6023C34.0208 85.6023 34.7984 85.7967 35.576 85.7967C39.6585 85.7967 42.769 84.8247 44.9074 82.8807C47.2403 80.7422 48.4067 77.4373 48.4067 72.966V60.5241C48.4067 59.5521 47.6291 58.7745 46.6571 58.7745L31.6879 58.5801C31.2991 58.5801 30.7159 58.7745 30.3271 59.1633C29.9383 59.5521 29.7439 59.9409 29.7439 60.5241V71.4108C29.7439 71.6052 29.7439 71.6052 29.5495 71.7996C29.5495 71.7996 29.3551 71.994 29.1607 71.994L19.0516 71.4108C18.8572 71.4108 18.6628 71.2164 18.6628 71.022V34.8627C18.6628 34.6683 18.8572 34.4739 19.0516 34.4739L29.1607 33.8907C29.3551 33.8907 29.3551 33.8907 29.5495 34.0851C29.5495 34.0851 29.7439 34.2795 29.7439 34.4739V42.2501C29.7439 42.8333 29.9383 43.2221 30.3271 43.6109C30.7159 43.9997 31.1047 44.1942 31.6879 44.1942L46.6571 43.8053C47.6291 43.8053 48.4067 43.0277 48.4067 42.0557V33.1131C48.4067 27.8642 47.2403 24.5593 44.9074 22.4208Z" fill="black"/>
<path d="M95.4526 14.6448L57.3493 17.7553C56.3773 17.7553 55.5997 18.7273 55.5997 19.5049V85.6025C55.5997 86.5745 56.3773 87.3521 57.3493 87.3521L95.4526 90.4626H95.647C96.0358 90.4626 96.619 90.2682 96.8134 90.0738C97.2022 89.685 97.3966 89.2961 97.3966 88.7129V76.6598C97.3966 75.6878 96.619 74.9102 95.647 74.9102L74.8457 73.9382C74.6513 73.9382 74.4569 73.7438 74.4569 73.5494V60.9131C74.4569 60.7187 74.4569 60.7187 74.6513 60.5243C74.6513 60.5243 74.8457 60.3299 75.0401 60.3299L89.4261 60.5243C89.8149 60.5243 90.3981 60.3299 90.7869 59.9411C91.1757 59.5522 91.3701 59.1634 91.3701 58.5802V46.9159C91.3701 46.3327 91.1757 45.9439 90.7869 45.5551C90.3981 45.1663 90.0093 44.9719 89.4261 44.9719L74.8457 45.3607C74.6513 45.3607 74.6513 45.3607 74.4569 45.1663C74.4569 45.1663 74.2625 44.9719 74.2625 44.7775V31.9468C74.2625 31.7524 74.4569 31.558 74.6513 31.558L95.4526 30.586C96.4246 30.586 97.2022 29.8083 97.2022 28.8363V16.5888C97.2022 16.0056 97.0078 15.6168 96.619 15.228C96.4246 14.8392 95.8414 14.6448 95.4526 14.6448Z" fill="black"/>
<path d="M120.142 92.0175C120.531 91.6287 120.725 91.2399 120.725 90.6567V62.2736C120.725 59.9408 120.725 56.6359 120.531 51.7758C120.531 51.387 120.725 51.387 120.92 51.387C121.114 51.387 121.309 51.387 121.309 51.7758C122.669 57.9967 124.03 62.8569 125.391 66.5505C128.501 75.1043 131.418 84.047 134.528 92.7952C134.722 93.5728 135.306 93.9616 136.083 93.9616L156.301 95.5168H156.496C156.885 95.5168 157.468 95.3224 157.662 95.128C158.051 94.7392 158.245 94.3504 158.245 93.7672V11.5341C158.245 10.9508 158.051 10.562 157.662 10.1732C157.273 9.78441 156.69 9.59001 156.301 9.78441L143.859 10.7564C142.887 10.7564 142.11 11.7285 142.11 12.5061V49.2485C142.11 52.359 142.304 56.2471 142.499 60.9128C142.499 61.3016 142.304 61.3016 142.11 61.3016C141.915 61.3016 141.721 61.3016 141.527 60.9128C139.971 54.1087 138.416 48.4709 136.861 43.8052C133.556 33.6962 130.251 23.3927 126.946 13.4781C126.752 12.7005 125.974 12.1173 125.002 12.3117L106.339 13.8669C105.367 13.8669 104.59 14.8389 104.59 15.6165V89.6847C104.59 90.6567 105.367 91.4343 106.339 91.4343L118.587 92.4063C119.17 92.4063 119.753 92.4063 120.142 92.0175Z" fill="black"/>
<path d="M217.733 4.7302L205.486 5.70222C204.514 5.70222 203.736 6.67425 203.736 7.45187V48.86C203.736 52.3593 203.93 56.6362 204.125 61.8851C204.125 62.2739 203.93 62.2739 203.736 62.2739C203.542 62.2739 203.347 62.2739 203.347 61.8851C201.792 54.3034 200.237 47.888 198.681 42.6391C195.377 30.9748 191.877 19.5049 188.572 8.42389C188.378 7.64627 187.6 7.06306 186.628 7.06306L167.966 8.61829C166.994 8.61829 166.216 9.59032 166.216 10.3679V94.3507C166.216 95.3227 166.994 96.1003 167.966 96.1003L180.213 97.0724C180.796 97.0724 181.185 96.878 181.574 96.6836C181.963 96.2947 182.157 95.9059 182.157 95.3227V63.4404C182.157 60.7187 182.157 57.025 181.963 51.5817C181.963 51.1929 182.157 51.1929 182.351 51.1929C182.546 51.1929 182.74 51.1929 182.74 51.5817C184.101 58.5803 185.462 64.0236 186.823 68.1061C189.933 77.8263 192.849 87.7409 195.96 97.6556C196.154 98.4332 196.737 98.822 197.515 99.0164L217.733 100.572H217.927C218.316 100.572 218.9 100.377 219.094 100.183C219.483 99.794 219.677 99.4052 219.677 98.822V6.67425C219.677 6.09103 219.483 5.70222 219.094 5.31342C218.705 4.92461 218.122 4.7302 217.733 4.7302Z" fill="black"/>
<path d="M270.806 21.06C270.806 20.8656 271 20.6712 271 20.4768V2.3972C271 1.81398 270.806 1.42517 270.417 1.03636C270.028 0.647555 269.445 0.45315 269.056 0.647555L228.231 3.95243C227.259 3.95243 226.481 4.92445 226.481 5.70207V22.2265C226.481 22.8097 226.676 23.1985 227.065 23.5873C227.453 23.9761 227.842 24.1705 228.425 24.1705L249.227 23.1985C249.421 23.1985 249.615 23.3929 249.615 23.3929C249.615 23.3929 249.81 23.5873 249.615 23.7817C242.034 43.9998 234.258 63.6346 226.481 82.2975C226.481 82.4919 226.287 82.6863 226.287 83.0751V99.7939C226.287 100.766 227.065 101.544 228.037 101.544L268.862 104.848H269.056C269.445 104.848 270.028 104.654 270.222 104.46C270.611 104.071 270.806 103.682 270.806 103.099V85.4079C270.806 84.4359 270.028 83.6583 269.056 83.6583L247.866 82.2975C247.671 82.2975 247.477 82.1031 247.477 82.1031C247.477 82.1031 247.283 81.9087 247.477 81.7142C255.253 62.2738 263.029 42.0557 270.806 21.06Z" fill="black"/>
<path d="M165.049 103.876L152.802 102.904C152.219 102.904 151.83 103.099 151.441 103.293C151.052 103.682 150.858 104.071 150.858 104.654V143.924C150.858 147.229 151.052 151.506 151.247 156.56C151.247 156.949 151.052 156.949 150.858 156.949C150.664 156.949 150.469 156.949 150.275 156.56C148.719 149.367 147.164 142.952 145.609 137.897C142.304 126.427 138.805 114.374 135.5 102.516C135.306 101.738 134.722 101.155 133.945 101.155L115.476 99.5995C114.893 99.5995 114.504 99.7939 114.115 99.9883C113.727 100.377 113.532 100.766 113.532 101.349V193.497C113.532 194.08 113.727 194.469 114.115 194.858C114.504 195.247 114.893 195.247 115.282 195.247H115.476L127.724 194.275C128.696 194.275 129.473 193.497 129.473 192.525V158.699C129.473 155.977 129.473 152.089 129.279 146.257C129.279 145.868 129.473 145.868 129.668 145.868C129.862 145.868 130.057 145.868 130.057 146.257C131.417 153.45 132.778 159.087 134.139 163.17C137.055 172.89 140.166 182.416 143.276 191.747C143.471 192.525 144.248 193.108 145.22 192.914L165.438 191.164C166.41 191.164 167.188 190.386 167.188 189.414V105.626C166.799 104.654 166.021 103.876 165.049 103.876Z" fill="black"/>
<path d="M215.206 108.153L177.103 104.849C176.519 104.849 176.131 105.043 175.742 105.237C175.353 105.626 175.159 106.015 175.159 106.598V188.248C175.159 188.831 175.353 189.22 175.742 189.609C176.131 189.998 176.519 189.998 176.908 189.998H177.103L215.206 186.693C216.178 186.693 216.955 185.915 216.955 184.943V172.307C216.955 171.724 216.761 171.335 216.372 170.946C215.983 170.557 215.595 170.363 215.011 170.363L194.405 171.529C194.21 171.529 194.21 171.529 194.016 171.335C194.016 171.335 193.821 171.141 193.821 170.946V156.171C193.821 155.977 194.016 155.783 194.21 155.783L208.596 155.588C209.568 155.588 210.346 154.811 210.346 153.839V141.202C210.346 140.23 209.568 139.453 208.596 139.453L194.21 139.258C194.016 139.258 193.821 139.064 193.821 138.869V123.9C193.821 123.706 193.821 123.706 194.016 123.511C194.016 123.511 194.21 123.317 194.405 123.317L215.011 124.483C215.595 124.483 215.983 124.289 216.372 123.9C216.761 123.511 216.955 123.123 216.955 122.539V109.903C216.955 108.931 216.178 108.153 215.206 108.153Z" fill="black"/>
<path d="M268.862 113.013C261.085 112.43 253.892 111.653 247.088 111.069C240.09 110.486 232.897 109.709 225.315 109.125C224.732 109.125 224.343 109.32 223.954 109.514C223.565 109.903 223.371 110.292 223.371 110.875V123.317C223.371 124.289 224.148 125.067 225.12 125.067C227.259 125.261 229.397 125.261 231.341 125.455C233.285 125.65 235.23 125.65 237.562 125.844C237.757 125.844 237.951 126.039 237.951 126.233V182.61C237.951 183.193 238.146 183.582 238.534 183.971C238.923 184.36 239.312 184.36 239.701 184.36H239.895L255.059 182.999C256.031 182.999 256.808 182.221 256.808 181.249V127.399C256.808 127.205 256.808 127.205 257.003 127.011C257.003 127.011 257.197 126.816 257.392 126.816C259.53 127.011 261.474 127.011 263.224 127.205C264.973 127.399 266.917 127.399 269.056 127.594C269.639 127.594 270.028 127.399 270.417 127.011C270.806 126.622 271 126.233 271 125.65V114.763C270.417 113.985 269.834 113.208 268.862 113.013Z" fill="black"/>
</svg>
