<svg width="468" height="94" viewBox="0 0 468 94" fill="none" xmlns="http://www.w3.org/2000/svg">
<path d="M18.8773 15.5026C17.8967 14.5219 16.2623 14.1951 13.8924 14.3585L6.12901 15.0123C2.043 15.3391 0 17.0553 0 19.9972V35.9326C0 39.2014 2.20644 41.081 6.29245 41.4078L13.9741 42.0616C14.301 42.0616 14.6279 42.1433 14.9548 42.1433C16.6709 42.1433 17.9784 41.7347 18.8773 40.9175C19.858 40.0186 20.3483 38.6294 20.3483 36.7498V31.5197C20.3483 31.1111 20.0214 30.7842 19.6128 30.7842L13.3204 30.7025C13.1569 30.7025 12.9118 30.7842 12.7483 30.9477C12.5849 31.1111 12.5032 31.2745 12.5032 31.5197V36.096C12.5032 36.1778 12.5032 36.1777 12.4215 36.2595C12.4215 36.2595 12.3397 36.3412 12.258 36.3412L8.00857 36.096C7.92685 36.096 7.84513 36.0143 7.84513 35.9326V20.7327C7.84513 20.6509 7.92685 20.5692 8.00857 20.5692L12.258 20.3241C12.3397 20.3241 12.3397 20.3241 12.4215 20.4058C12.4215 20.4058 12.5032 20.4875 12.5032 20.5692V23.838C12.5032 24.0832 12.5849 24.2466 12.7483 24.4101C12.9118 24.5735 13.0752 24.6552 13.3204 24.6552L19.6128 24.4918C20.0214 24.4918 20.3483 24.1649 20.3483 23.7563V19.9972C20.3483 17.7907 19.858 16.4015 18.8773 15.5026Z" fill="black"/>
<path d="M40.1257 12.2324L24.1085 13.5399C23.6999 13.5399 23.373 13.9485 23.373 14.2754V42.0603C23.373 42.4689 23.6999 42.7957 24.1085 42.7957L40.1257 44.1033H40.2074C40.3708 44.1033 40.616 44.0215 40.6977 43.9398C40.8611 43.7764 40.9429 43.6129 40.9429 43.3678V38.3011C40.9429 37.8925 40.616 37.5656 40.2074 37.5656L31.4633 37.157C31.3816 37.157 31.2999 37.0753 31.2999 36.9936V31.6818C31.2999 31.6001 31.2999 31.6001 31.3816 31.5184C31.3816 31.5184 31.4633 31.4366 31.5451 31.4366L37.5923 31.5184C37.7558 31.5184 38.0009 31.4366 38.1644 31.2732C38.3278 31.1098 38.4095 30.9463 38.4095 30.7012V25.798C38.4095 25.5528 38.3278 25.3894 38.1644 25.2259C38.0009 25.0625 37.8375 24.9808 37.5923 24.9808L31.4633 25.1442C31.3816 25.1442 31.3816 25.1442 31.2999 25.0625C31.2999 25.0625 31.2182 24.9808 31.2182 24.899V19.5055C31.2182 19.4238 31.2999 19.3421 31.3816 19.3421L40.1257 18.9335C40.5343 18.9335 40.8611 18.6066 40.8611 18.198V13.0496C40.8611 12.8045 40.7794 12.641 40.616 12.4776C40.5343 12.3141 40.2891 12.2324 40.1257 12.2324Z" fill="black"/>
<path d="M50.5044 44.7559C50.6678 44.5925 50.7496 44.429 50.7496 44.1839V32.2527C50.7496 31.2721 50.7496 29.8828 50.6678 27.8398C50.6678 27.6764 50.7496 27.6764 50.8313 27.6764C50.913 27.6764 50.9947 27.6764 50.9947 27.8398C51.5668 30.4549 52.1388 32.4979 52.7108 34.0506C54.0184 37.6463 55.2442 41.4054 56.5517 45.0828C56.6334 45.4097 56.8786 45.5731 57.2055 45.5731L65.7043 46.2269H65.7861C65.9495 46.2269 66.1947 46.1451 66.2764 46.0634C66.4398 45.9 66.5215 45.7365 66.5215 45.4914V10.9238C66.5215 10.6786 66.4398 10.5152 66.2764 10.3517C66.1129 10.1883 65.8678 10.1066 65.7043 10.1883L60.4743 10.5969C60.0657 10.5969 59.7388 11.0055 59.7388 11.3324V26.7775C59.7388 28.085 59.8205 29.7194 59.9022 31.6807C59.9022 31.8441 59.8205 31.8441 59.7388 31.8441C59.6571 31.8441 59.5753 31.8441 59.4936 31.6807C58.8399 28.8205 58.1861 26.4506 57.5323 24.4893C56.1431 20.2399 54.7539 15.9087 53.3646 11.741C53.2829 11.4141 52.956 11.169 52.5474 11.2507L44.7023 11.9044C44.2937 11.9044 43.9668 12.313 43.9668 12.6399V43.7753C43.9668 44.1839 44.2937 44.5107 44.7023 44.5107L49.8506 44.9193C50.0958 44.9193 50.341 44.9193 50.5044 44.7559Z" fill="black"/>
<path d="M91.5269 8.06445L86.3785 8.47305C85.9699 8.47305 85.6431 8.88165 85.6431 9.20853V26.6149C85.6431 28.0859 85.7248 29.8837 85.8065 32.0902C85.8065 32.2536 85.7248 32.2536 85.6431 32.2536C85.5613 32.2536 85.4796 32.2536 85.4796 32.0902C84.8259 28.9031 84.1721 26.2063 83.5183 23.9999C82.1291 19.0967 80.6581 14.2752 79.2689 9.61713C79.1872 9.29025 78.8603 9.04509 78.4517 9.04509L70.6066 9.69885C70.198 9.69885 69.8711 10.1075 69.8711 10.4343V45.7374C69.8711 46.146 70.198 46.4729 70.6066 46.4729L75.7549 46.8815C76.0001 46.8815 76.1635 46.7998 76.327 46.7181C76.4904 46.5546 76.5721 46.3912 76.5721 46.146V32.7439C76.5721 31.5998 76.5721 30.0472 76.4904 27.759C76.4904 27.5956 76.5721 27.5956 76.6539 27.5956C76.7356 27.5956 76.8173 27.5956 76.8173 27.759C77.3893 30.7009 77.9614 32.9891 78.5334 34.7052C79.8409 38.7912 81.0667 42.9589 82.3743 47.1267C82.456 47.4535 82.7011 47.617 83.028 47.6987L91.5269 48.3525H91.6086C91.7721 48.3525 92.0172 48.2707 92.099 48.189C92.2624 48.0256 92.3441 47.8621 92.3441 47.617V8.88165C92.3441 8.63649 92.2624 8.47305 92.099 8.30961C91.9355 8.14617 91.6904 8.06445 91.5269 8.06445Z" fill="black"/>
<path d="M113.835 14.9291C113.835 14.8474 113.917 14.7656 113.917 14.6839V7.08395C113.917 6.83879 113.835 6.67535 113.672 6.51191C113.508 6.34847 113.263 6.26675 113.1 6.34847L95.9383 7.73771C95.5297 7.73771 95.2028 8.14631 95.2028 8.47319V15.4194C95.2028 15.6646 95.2845 15.828 95.448 15.9914C95.6114 16.1549 95.7749 16.2366 96.02 16.2366L104.764 15.828C104.846 15.828 104.927 15.9097 104.927 15.9097C104.927 15.9097 105.009 15.9914 104.927 16.0732C101.74 24.572 98.4716 32.8258 95.2028 40.6709C95.2028 40.7526 95.1211 40.8343 95.1211 40.9978V48.0257C95.1211 48.4343 95.448 48.7612 95.8566 48.7612L113.018 50.1504H113.1C113.263 50.1504 113.508 50.0687 113.59 49.987C113.753 49.8235 113.835 49.6601 113.835 49.4149V41.9784C113.835 41.5698 113.508 41.2429 113.1 41.2429L104.192 40.6709C104.11 40.6709 104.029 40.5892 104.029 40.5892C104.029 40.5892 103.947 40.5075 104.029 40.4257C107.297 32.2537 110.566 23.7548 113.835 14.9291Z" fill="black"/>
<path d="M69.3785 49.7412L64.2301 49.3326C63.9849 49.3326 63.8215 49.4143 63.6581 49.496C63.4946 49.6595 63.4129 49.8229 63.4129 50.0681V66.5755C63.4129 67.9648 63.4946 69.7626 63.5764 71.8873C63.5764 72.0508 63.4946 72.0508 63.4129 72.0508C63.3312 72.0508 63.2495 72.0508 63.1678 71.8873C62.514 68.8637 61.8602 66.1669 61.2065 64.0422C59.8172 59.2207 58.3463 54.1541 56.957 49.1692C56.8753 48.8423 56.6301 48.5971 56.3033 48.5971L48.5399 47.9434C48.2947 47.9434 48.1313 48.0251 47.9678 48.1068C47.8044 48.2702 47.7227 48.4337 47.7227 48.6788V87.4142C47.7227 87.6593 47.8044 87.8228 47.9678 87.9862C48.1313 88.1496 48.2947 88.1496 48.4581 88.1496H48.5399L53.6882 87.741C54.0968 87.741 54.4237 87.4142 54.4237 87.0056V72.7863C54.4237 71.6422 54.4237 70.0078 54.342 67.5562C54.342 67.3927 54.4237 67.3927 54.5054 67.3927C54.5871 67.3927 54.6689 67.3927 54.6689 67.5562C55.2409 70.5798 55.8129 72.9497 56.385 74.6658C57.6108 78.7518 58.9183 82.7561 60.2258 86.6787C60.3075 87.0056 60.6344 87.2507 61.043 87.169L69.5419 86.4335C69.9505 86.4335 70.2774 86.1066 70.2774 85.698V50.4767C70.114 50.0681 69.7871 49.7412 69.3785 49.7412Z" fill="black"/>
<path d="M90.4652 51.5416L74.4481 50.1523C74.2029 50.1523 74.0395 50.2341 73.876 50.3158C73.7126 50.4792 73.6309 50.6427 73.6309 50.8878V85.2103C73.6309 85.4554 73.7126 85.6189 73.876 85.7823C74.0395 85.9457 74.2029 85.9457 74.3663 85.9457H74.4481L90.4652 84.5565C90.8738 84.5565 91.2007 84.2296 91.2007 83.821V78.5092C91.2007 78.2641 91.119 78.1006 90.9555 77.9372C90.7921 77.7737 90.6286 77.692 90.3835 77.692L81.7211 78.1823C81.6394 78.1823 81.6394 78.1823 81.5577 78.1006C81.5577 78.1006 81.476 78.0189 81.476 77.9372V71.7264C81.476 71.6447 81.5577 71.563 81.6394 71.563L87.6867 71.4813C88.0953 71.4813 88.4222 71.1544 88.4222 70.7458V65.434C88.4222 65.0254 88.0953 64.6985 87.6867 64.6985L81.6394 64.6168C81.5577 64.6168 81.476 64.5351 81.476 64.4534V58.1609C81.476 58.0792 81.476 58.0792 81.5577 57.9975C81.5577 57.9975 81.6394 57.9158 81.7211 57.9158L90.3835 58.4061C90.6286 58.4061 90.7921 58.3244 90.9555 58.1609C91.119 57.9975 91.2007 57.834 91.2007 57.5889V52.2771C91.2007 51.8685 90.8738 51.5416 90.4652 51.5416Z" fill="black"/>
<path d="M113.019 53.5836C109.75 53.3385 106.727 53.0116 103.866 52.7664C100.924 52.5213 97.9008 52.1944 94.7137 51.9492C94.4685 51.9492 94.3051 52.0309 94.1416 52.1127C93.9782 52.2761 93.8965 52.4395 93.8965 52.6847V57.9148C93.8965 58.3234 94.2234 58.6503 94.632 58.6503C95.5309 58.732 96.4298 58.732 97.247 58.8137C98.0642 58.8954 98.8814 58.8954 99.862 58.9771C99.9438 58.9771 100.025 59.0589 100.025 59.1406V82.8394C100.025 83.0846 100.107 83.248 100.271 83.4115C100.434 83.5749 100.598 83.5749 100.761 83.5749H100.843L107.217 83.0029C107.625 83.0029 107.952 82.676 107.952 82.2674V59.6309C107.952 59.5492 107.952 59.5492 108.034 59.4675C108.034 59.4675 108.116 59.3857 108.197 59.3857C109.096 59.4675 109.914 59.4675 110.649 59.5492C111.385 59.6309 112.202 59.6309 113.101 59.7126C113.346 59.7126 113.509 59.6309 113.673 59.4675C113.836 59.304 113.918 59.1406 113.918 58.8954V54.3191C113.673 53.9922 113.428 53.6653 113.019 53.5836Z" fill="black"/>
<g filter="url(#filter0_d_312_28)">
<rect x="193" y="2.09961" width="273.479" height="50.2784" fill="white"/>
<g filter="url(#filter1_d_312_28)">
<path d="M228.595 22.5772V19.5206C228.595 15.7941 227.381 13.9517 223.738 13.9517H213.606C210.633 13.9517 208.707 15.2497 208.707 18.9344V35.7666C208.707 39.3675 210.633 41.168 213.982 41.168H223.487C227.339 41.168 228.595 38.572 228.595 35.8085V25.5082H218.044V30.3233H222.44V35.641H214.904V19.5206H222.357V22.5772H228.595ZM238.636 41.168H249.062C252.37 41.168 254.17 38.8651 254.17 35.7666V19.6043C254.17 16.0453 252.956 13.9517 249.522 13.9517H238.217C235.412 13.9517 233.653 15.6266 233.653 18.8925V35.9759C233.653 39.535 235.83 41.168 238.636 41.168ZM239.892 35.5572V19.6043H247.889V35.5572H239.892ZM264.247 13.9517H257.674L263.996 41.168H273.585L279.865 13.9517H273.292L269.104 35.1804H268.602L264.247 13.9517ZM283.915 41.168H301.25V35.7666H290.238V30.1977H298.235V24.8382H290.238V19.3531H301.25V13.9517H283.915V41.168ZM312.24 41.168V33.2125H316.846L319.358 41.168H325.681L322.917 32.9194C324.843 32.5006 325.639 31.077 325.639 28.3135V18.9344C325.639 15.5847 324.55 13.9517 321.703 13.9517H305.918V41.168H312.24ZM312.24 27.8111V19.6043H319.4V27.8111H312.24ZM352.143 41.168V13.9517H346.657V27.0993C346.657 28.8579 346.741 31.4539 346.867 34.1336C346.071 31.5376 345.024 28.6485 343.768 25.9269L338.241 13.9517H330.537V41.168H336.022V29.3184C336.022 27.8111 335.98 25.3826 335.855 22.7447C336.608 25.3826 337.529 28.0623 338.618 30.2815L343.978 41.168H352.143ZM372.02 41.168H378.427L372.523 13.9517H362.222L356.235 41.168H362.641L363.646 36.1016H371.015L372.02 41.168ZM367.038 19.3531H367.666L369.969 30.8258H364.735L367.038 19.3531ZM404.121 41.168V13.9517H398.636V27.0993C398.636 28.8579 398.719 31.4539 398.845 34.1336C398.05 31.5376 397.003 28.6485 395.747 25.9269L390.22 13.9517H382.515V41.168H388V29.3184C388 27.8111 387.959 25.3826 387.833 22.7447C388.587 25.3826 389.508 28.0623 390.596 30.2815L395.956 41.168H404.121ZM422.784 30.1977V35.5572H415.499V19.6043H422.784V23.4984H429.023V19.6043C429.023 15.8359 427.809 13.9517 423.999 13.9517H414.159C411.144 13.9517 409.26 15.2916 409.26 18.9763V35.7666C409.26 39.3675 411.186 41.168 414.536 41.168H423.831C427.809 41.168 429.023 38.572 429.023 35.8085V30.1977H422.784ZM433.88 41.168H451.215V35.7666H440.203V30.1977H448.2V24.8382H440.203V19.3531H451.215V13.9517H433.88V41.168Z" fill="#9847FF"/>
</g>
</g>
<g filter="url(#filter2_d_312_28)">
<rect x="193" y="56.7383" width="155.485" height="31.9689" fill="white"/>
<g filter="url(#filter3_d_312_28)">
<path d="M217.566 65.3673H211.455V78.9687H212.914V74.1392H217.566C220.109 74.1392 222.021 72.2469 222.021 69.7434C222.021 67.2596 220.109 65.3673 217.566 65.3673ZM217.526 72.168H212.914V67.3385H217.526C219.281 67.3385 220.522 68.3241 220.522 69.7434C220.522 71.1627 219.281 72.168 217.526 72.168ZM228.16 76.9975V65.3673H226.701V78.9687H235.315V76.9975H228.16ZM250.86 78.9687H252.418L246.878 65.3673H244.533L238.974 78.9687H240.649L242.01 75.7754H249.5L250.86 78.9687ZM242.837 73.8041L245.459 67.6539H246.031L248.653 73.8041H242.837ZM264.892 65.3673H254.07V67.3385H258.761V78.9687H260.22V67.3385H264.892V65.3673ZM278.541 67.3385V65.3673H269.533V78.9687H270.992V73.2325H277.733V71.2809H270.992V67.3385H278.541ZM289.511 79.2053C293.572 79.2053 296.627 76.1696 296.627 72.168C296.627 68.1664 293.572 65.1307 289.511 65.1307C285.47 65.1307 282.395 68.1664 282.395 72.168C282.395 76.1696 285.47 79.2053 289.511 79.2053ZM289.511 77.1946C286.318 77.1946 283.913 75.0263 283.913 72.168C283.913 69.3097 286.318 67.1414 289.511 67.1414C292.704 67.1414 295.129 69.3097 295.129 72.168C295.129 75.0263 292.704 77.1946 289.511 77.1946ZM310.456 78.9687H312.269L308.682 74.0407C310.712 73.607 312.131 71.9117 312.131 69.7434C312.131 67.2596 310.219 65.3673 307.676 65.3673H301.565V78.9687H303.024V74.1392H306.927L310.456 78.9687ZM303.024 67.3385H307.637C309.391 67.3385 310.633 68.3241 310.633 69.7434C310.633 71.1627 309.391 72.168 307.637 72.168H303.024V67.3385ZM317.004 78.9687H318.463V68.2453H318.936L323.016 76.1893H324.653L328.753 68.2453H329.206V78.9687H330.665V65.3673H328.339L324.022 73.3507H323.568L319.251 65.3673H317.004V78.9687Z" fill="#9847FF"/>
</g>
</g>
<line x1="155.054" y1="0.890625" x2="155.054" y2="93.1098" stroke="#9847FF" stroke-width="2.71233"/>
<defs>
<filter id="filter0_d_312_28" x="193" y="2.09961" width="274.933" height="51.7324" filterUnits="userSpaceOnUse" color-interpolation-filters="sRGB">
<feFlood flood-opacity="0" result="BackgroundImageFix"/>
<feColorMatrix in="SourceAlpha" type="matrix" values="0 0 0 0 0 0 0 0 0 0 0 0 0 0 0 0 0 0 127 0" result="hardAlpha"/>
<feOffset dx="1.45313" dy="1.45313"/>
<feComposite in2="hardAlpha" operator="out"/>
<feColorMatrix type="matrix" values="0 0 0 0 0 0 0 0 0 0 0 0 0 0 0 0 0 0 1 0"/>
<feBlend mode="normal" in2="BackgroundImageFix" result="effect1_dropShadow_312_28"/>
<feBlend mode="normal" in="SourceGraphic" in2="effect1_dropShadow_312_28" result="shape"/>
</filter>
<filter id="filter1_d_312_28" x="208.707" y="13.9512" width="243.67" height="28.3793" filterUnits="userSpaceOnUse" color-interpolation-filters="sRGB">
<feFlood flood-opacity="0" result="BackgroundImageFix"/>
<feColorMatrix in="SourceAlpha" type="matrix" values="0 0 0 0 0 0 0 0 0 0 0 0 0 0 0 0 0 0 127 0" result="hardAlpha"/>
<feOffset dx="1.16251" dy="1.16251"/>
<feComposite in2="hardAlpha" operator="out"/>
<feColorMatrix type="matrix" values="0 0 0 0 0 0 0 0 0 0 0 0 0 0 0 0 0 0 1 0"/>
<feBlend mode="normal" in2="BackgroundImageFix" result="effect1_dropShadow_312_28"/>
<feBlend mode="normal" in="SourceGraphic" in2="effect1_dropShadow_312_28" result="shape"/>
</filter>
<filter id="filter2_d_312_28" x="193" y="56.7383" width="156.938" height="33.4219" filterUnits="userSpaceOnUse" color-interpolation-filters="sRGB">
<feFlood flood-opacity="0" result="BackgroundImageFix"/>
<feColorMatrix in="SourceAlpha" type="matrix" values="0 0 0 0 0 0 0 0 0 0 0 0 0 0 0 0 0 0 127 0" result="hardAlpha"/>
<feOffset dx="1.45313" dy="1.45313"/>
<feComposite in2="hardAlpha" operator="out"/>
<feColorMatrix type="matrix" values="0 0 0 0 0 0 0 0 0 0 0 0 0 0 0 0 0 0 1 0"/>
<feBlend mode="normal" in2="BackgroundImageFix" result="effect1_dropShadow_312_28"/>
<feBlend mode="normal" in="SourceGraphic" in2="effect1_dropShadow_312_28" result="shape"/>
</filter>
<filter id="filter3_d_312_28" x="211.455" y="65.1309" width="120.372" height="15.2367" filterUnits="userSpaceOnUse" color-interpolation-filters="sRGB">
<feFlood flood-opacity="0" result="BackgroundImageFix"/>
<feColorMatrix in="SourceAlpha" type="matrix" values="0 0 0 0 0 0 0 0 0 0 0 0 0 0 0 0 0 0 127 0" result="hardAlpha"/>
<feOffset dx="1.16251" dy="1.16251"/>
<feComposite in2="hardAlpha" operator="out"/>
<feColorMatrix type="matrix" values="0 0 0 0 0 0 0 0 0 0 0 0 0 0 0 0 0 0 1 0"/>
<feBlend mode="normal" in2="BackgroundImageFix" result="effect1_dropShadow_312_28"/>
<feBlend mode="normal" in="SourceGraphic" in2="effect1_dropShadow_312_28" result="shape"/>
</filter>
</defs>
</svg>
