<?xml version="1.0" encoding="utf-8"?>
<!-- Generator: Adobe Illustrator 26.3.1, SVG Export Plug-In . SVG Version: 6.00 Build 0)  -->
<svg version="1.1" id="Layer_1" xmlns="http://www.w3.org/2000/svg" xmlns:xlink="http://www.w3.org/1999/xlink" x="0px" y="0px"
	 viewBox="0 0 985 193.9" style="enable-background:new 0 0 985 193.9;" xml:space="preserve">
<style type="text/css">
	.st0{fill:#FFFFFF;}
	.st1{fill:#9847FF;}
	.st2{fill:none;stroke:#9847FF;stroke-width:5.7031;}
</style>
<g>
	<g>
		<rect x="409.8" y="122.3" width="326.9" height="66.4"/>
	</g>
	<rect x="409.8" y="7.3" width="575.1" height="105"/>
	<path d="M39.7,30.7c-2.1-2.1-5.5-2.7-10.5-2.4l-16.3,1.4C4.3,30.4,0,34,0,40.2v33.5c0,6.9,4.6,10.8,13.2,11.5l16.2,1.4
		c0.7,0,1.4,0.2,2.1,0.2c3.6,0,6.4-0.9,8.2-2.6c2.1-1.9,3.1-4.8,3.1-8.8v-11c0-0.9-0.7-1.5-1.5-1.5L28,62.7c-0.3,0-0.9,0.2-1.2,0.5
		c-0.3,0.3-0.5,0.7-0.5,1.2V74c0,0.2,0,0.2-0.2,0.3c0,0-0.2,0.2-0.3,0.2L16.8,74c-0.2,0-0.3-0.2-0.3-0.3v-32c0-0.2,0.2-0.3,0.3-0.3
		l8.9-0.5c0.2,0,0.2,0,0.3,0.2c0,0,0.2,0.2,0.2,0.3v6.9c0,0.5,0.2,0.9,0.5,1.2c0.3,0.3,0.7,0.5,1.2,0.5l13.2-0.3
		c0.9,0,1.5-0.7,1.5-1.5v-7.9C42.8,35.5,41.8,32.6,39.7,30.7z"/>
	<path d="M84.4,23.8l-33.7,2.7c-0.9,0-1.5,0.9-1.5,1.5v58.4c0,0.9,0.7,1.5,1.5,1.5l33.7,2.7h0.2c0.3,0,0.9-0.2,1-0.3
		c0.3-0.3,0.5-0.7,0.5-1.2V78.7c0-0.9-0.7-1.5-1.5-1.5l-18.4-0.9c-0.2,0-0.3-0.2-0.3-0.3V64.7c0-0.2,0-0.2,0.2-0.3
		c0,0,0.2-0.2,0.3-0.2L79,64.4c0.3,0,0.9-0.2,1.2-0.5c0.3-0.3,0.5-0.7,0.5-1.2V52.4c0-0.5-0.2-0.9-0.5-1.2c-0.3-0.3-0.7-0.5-1.2-0.5
		L66.2,51c-0.2,0-0.2,0-0.3-0.2c0,0-0.2-0.2-0.2-0.3V39.1c0-0.2,0.2-0.3,0.3-0.3l18.4-0.9c0.9,0,1.5-0.7,1.5-1.5V25.6
		c0-0.5-0.2-0.9-0.5-1.2C85.2,24,84.7,23.8,84.4,23.8z"/>
	<path d="M106.2,92.2c0.3-0.3,0.5-0.7,0.5-1.2V65.9c0-2.1,0-5-0.2-9.3c0-0.3,0.2-0.3,0.3-0.3c0.2,0,0.3,0,0.3,0.3
		c1.2,5.5,2.4,9.8,3.6,13.1c2.7,7.6,5.3,15.5,8.1,23.2c0.2,0.7,0.7,1,1.4,1l17.9,1.4h0.2c0.3,0,0.9-0.2,1-0.3
		c0.3-0.3,0.5-0.7,0.5-1.2V21.1c0-0.5-0.2-0.9-0.5-1.2c-0.3-0.3-0.9-0.5-1.2-0.3l-11,0.9c-0.9,0-1.5,0.9-1.5,1.5v32.5
		c0,2.7,0.2,6.2,0.3,10.3c0,0.3-0.2,0.3-0.3,0.3s-0.3,0-0.5-0.3c-1.4-6-2.7-11-4.1-15.1c-2.9-8.9-5.8-18-8.8-26.8
		c-0.2-0.7-0.9-1.2-1.7-1L94,23.2c-0.9,0-1.5,0.9-1.5,1.5v65.5c0,0.9,0.7,1.5,1.5,1.5l10.8,0.9C105.3,92.6,105.8,92.6,106.2,92.2z"
		/>
	<path d="M192.4,15.1l-10.8,0.9c-0.9,0-1.5,0.9-1.5,1.5v36.6c0,3.1,0.2,6.9,0.3,11.5c0,0.3-0.2,0.3-0.3,0.3c-0.2,0-0.3,0-0.3-0.3
		c-1.4-6.7-2.7-12.4-4.1-17c-2.9-10.3-6-20.4-8.9-30.2c-0.2-0.7-0.9-1.2-1.7-1.2l-16.5,1.4c-0.9,0-1.5,0.9-1.5,1.5v74.2
		c0,0.9,0.7,1.5,1.5,1.5l10.8,0.9c0.5,0,0.9-0.2,1.2-0.3c0.3-0.3,0.5-0.7,0.5-1.2V67c0-2.4,0-5.7-0.2-10.5c0-0.3,0.2-0.3,0.3-0.3
		c0.2,0,0.3,0,0.3,0.3c1.2,6.2,2.4,11,3.6,14.6c2.7,8.6,5.3,17.4,8.1,26.1c0.2,0.7,0.7,1,1.4,1.2l17.9,1.4h0.2c0.3,0,0.9-0.2,1-0.3
		c0.3-0.3,0.5-0.7,0.5-1.2V16.8c0-0.5-0.2-0.9-0.5-1.2C193.3,15.3,192.8,15.1,192.4,15.1z"/>
	<path d="M239.4,29.5c0-0.2,0.2-0.3,0.2-0.5V13c0-0.5-0.2-0.9-0.5-1.2c-0.3-0.3-0.9-0.5-1.2-0.3l-36.1,2.9c-0.9,0-1.5,0.9-1.5,1.5
		v14.6c0,0.5,0.2,0.9,0.5,1.2c0.3,0.3,0.7,0.5,1.2,0.5l18.4-0.9c0.2,0,0.3,0.2,0.3,0.2s0.2,0.2,0,0.3c-6.7,17.9-13.6,35.2-20.4,51.7
		c0,0.2-0.2,0.3-0.2,0.7v14.8c0,0.9,0.7,1.5,1.5,1.5l36.1,2.9h0.2c0.3,0,0.9-0.2,1-0.3c0.3-0.3,0.5-0.7,0.5-1.2V86.4
		c0-0.9-0.7-1.5-1.5-1.5l-18.7-1.2c-0.2,0-0.3-0.2-0.3-0.2s-0.2-0.2,0-0.3C225.6,65.9,232.5,48.1,239.4,29.5z"/>
	<path d="M145.9,102.7l-10.8-0.9c-0.5,0-0.9,0.2-1.2,0.3c-0.3,0.3-0.5,0.7-0.5,1.2v34.7c0,2.9,0.2,6.7,0.3,11.2
		c0,0.3-0.2,0.3-0.3,0.3s-0.3,0-0.5-0.3c-1.4-6.4-2.7-12-4.1-16.5c-2.9-10.1-6-20.8-8.9-31.3c-0.2-0.7-0.7-1.2-1.4-1.2l-16.3-1.4
		c-0.5,0-0.9,0.2-1.2,0.3c-0.3,0.3-0.5,0.7-0.5,1.2v81.4c0,0.5,0.2,0.9,0.5,1.2c0.3,0.3,0.7,0.3,1,0.3h0.2l10.8-0.9
		c0.9,0,1.5-0.7,1.5-1.5v-29.9c0-2.4,0-5.8-0.2-11c0-0.3,0.2-0.3,0.3-0.3s0.3,0,0.3,0.3c1.2,6.4,2.4,11.3,3.6,14.9
		c2.6,8.6,5.3,17,8.1,25.3c0.2,0.7,0.9,1.2,1.7,1l17.9-1.5c0.9,0,1.5-0.7,1.5-1.5v-74.1C147.4,103.4,146.7,102.7,145.9,102.7z"/>
	<path d="M190.2,106.5l-33.7-2.9c-0.5,0-0.9,0.2-1.2,0.3c-0.3,0.3-0.5,0.7-0.5,1.2v72.2c0,0.5,0.2,0.9,0.5,1.2
		c0.3,0.3,0.7,0.3,1,0.3h0.2l33.7-2.9c0.9,0,1.5-0.7,1.5-1.5v-11.2c0-0.5-0.2-0.9-0.5-1.2c-0.3-0.3-0.7-0.5-1.2-0.5l-18.2,1
		c-0.2,0-0.2,0-0.3-0.2c0,0-0.2-0.2-0.2-0.3v-13.1c0-0.2,0.2-0.3,0.3-0.3l12.7-0.2c0.9,0,1.5-0.7,1.5-1.5v-11.2
		c0-0.9-0.7-1.5-1.5-1.5l-12.7-0.2c-0.2,0-0.3-0.2-0.3-0.3v-13.2c0-0.2,0-0.2,0.2-0.3c0,0,0.2-0.2,0.3-0.2l18.2,1
		c0.5,0,0.9-0.2,1.2-0.5c0.3-0.3,0.5-0.7,0.5-1.2V108C191.8,107.2,191.1,106.5,190.2,106.5z"/>
	<path d="M237.6,110.8c-6.9-0.5-13.2-1.2-19.2-1.7c-6.2-0.5-12.5-1.2-19.2-1.7c-0.5,0-0.9,0.2-1.2,0.3c-0.3,0.3-0.5,0.7-0.5,1.2v11
		c0,0.9,0.7,1.5,1.5,1.5c1.9,0.2,3.8,0.2,5.5,0.3c1.7,0.2,3.4,0.2,5.5,0.3c0.2,0,0.3,0.2,0.3,0.3v49.8c0,0.5,0.2,0.9,0.5,1.2
		c0.3,0.3,0.7,0.3,1,0.3h0.2l13.4-1.2c0.9,0,1.5-0.7,1.5-1.5v-47.6c0-0.2,0-0.2,0.2-0.3c0,0,0.2-0.2,0.3-0.2
		c1.9,0.2,3.6,0.2,5.2,0.3c1.5,0.2,3.3,0.2,5.2,0.3c0.5,0,0.9-0.2,1.2-0.5c0.3-0.3,0.5-0.7,0.5-1.2v-9.6
		C239,111.7,238.5,111,237.6,110.8z"/>
	<rect x="405.8" y="2.5" class="st0" width="575" height="105.7"/>
	<g>
		<path class="st1" d="M480.7,45.6v-6.4c0-7.8-2.6-11.7-10.2-11.7h-21.3c-6.3,0-10.3,2.7-10.3,10.5v35.4c0,7.6,4,11.4,11.1,11.4h20
			c8.1,0,10.7-5.5,10.7-11.3V51.8h-22.2v10.1h9.2v11.2h-15.8V39.2h15.7v6.4H480.7z M501.8,84.7h21.9c7,0,10.7-4.8,10.7-11.4v-34
			c0-7.5-2.6-11.9-9.8-11.9h-23.8c-5.9,0-9.6,3.5-9.6,10.4v35.9C491.3,81.3,495.9,84.7,501.8,84.7z M504.4,72.9V39.3h16.8v33.5
			H504.4z M555.6,27.5h-13.8l13.3,57.2h20.2l13.2-57.2h-13.8l-8.8,44.6h-1.1L555.6,27.5z M597,84.7h36.4V73.3h-23.2V61.6h16.8V50.4
			h-16.8V38.8h23.2V27.5H597V84.7z M656.5,84.7V68h9.7l5.3,16.7h13.3L679,67.3c4-0.9,5.7-3.9,5.7-9.7V37.9c0-7-2.3-10.5-8.3-10.5
			h-33.2v57.2H656.5z M656.5,56.6V39.3h15.1v17.3H656.5z M740.4,84.7V27.5h-11.5v27.6c0,3.7,0.2,9.2,0.4,14.8
			c-1.7-5.5-3.9-11.5-6.5-17.3l-11.6-25.2H695v57.2h11.5V59.8c0-3.2-0.1-8.3-0.4-13.8c1.6,5.5,3.5,11.2,5.8,15.8l11.3,22.9H740.4z
			 M782.2,84.7h13.5l-12.4-57.2h-21.7L749,84.7h13.5l2.1-10.7h15.5L782.2,84.7z M771.8,38.8h1.3l4.8,24.1h-11L771.8,38.8z
			 M849.7,84.7V27.5h-11.5v27.6c0,3.7,0.2,9.2,0.4,14.8c-1.7-5.5-3.9-11.5-6.5-17.3l-11.6-25.2h-16.2v57.2h11.5V59.8
			c0-3.2-0.1-8.3-0.4-13.8c1.6,5.5,3.5,11.2,5.8,15.8l11.3,22.9H849.7z M889,61.6v11.3h-15.3V39.3H889v8.2h13.1v-8.2
			c0-7.9-2.6-11.9-10.6-11.9h-20.7c-6.3,0-10.3,2.8-10.3,10.6v35.3c0,7.6,4,11.4,11.1,11.4h19.5c8.4,0,10.9-5.5,10.9-11.3V61.6H889z
			 M912.3,84.7h36.4V73.3h-23.2V61.6h16.8V50.4h-16.8V38.8h23.2V27.5h-36.4V84.7z"/>
	</g>
	<g>
		<rect x="405.8" y="117.4" class="st0" width="326.9" height="67.2"/>
		<g>
			<path class="st1" d="M457.5,137.7h-12.8v28.6h3.1v-10.2h9.8c5.3,0,9.4-4,9.4-9.2C466.8,141.7,462.8,137.7,457.5,137.7z
				 M457.4,152h-9.7v-10.2h9.7c3.7,0,6.3,2.1,6.3,5.1C463.7,149.9,461.1,152,457.4,152z M479.7,162.1v-24.5h-3.1v28.6h18.1v-4.1
				H479.7z M527.5,166.3h3.3l-11.6-28.6h-4.9l-11.7,28.6h3.5l2.9-6.7h15.7L527.5,166.3z M510.6,155.4l5.5-12.9h1.2l5.5,12.9H510.6z
				 M557,137.7h-22.8v4.1h9.9v24.5h3.1v-24.5h9.8V137.7z M585.7,141.8v-4.1h-18.9v28.6h3.1v-12.1H584v-4.1h-14.2v-8.3H585.7z
				 M608.7,166.8c8.5,0,15-6.4,15-14.8c0-8.4-6.4-14.8-15-14.8c-8.5,0-15,6.4-15,14.8C593.8,160.4,600.2,166.8,608.7,166.8z
				 M608.7,162.5c-6.7,0-11.8-4.6-11.8-10.6c0-6,5.1-10.6,11.8-10.6c6.7,0,11.8,4.6,11.8,10.6C620.6,158,615.5,162.5,608.7,162.5z
				 M652.8,166.3h3.8l-7.5-10.4c4.3-0.9,7.3-4.5,7.3-9c0-5.2-4-9.2-9.4-9.2h-12.8v28.6h3.1v-10.2h8.2L652.8,166.3z M637.2,141.8h9.7
				c3.7,0,6.3,2.1,6.3,5.1c0,3-2.6,5.1-6.3,5.1h-9.7V141.8z M666.5,166.3h3.1v-22.5h1l8.6,16.7h3.4l8.6-16.7h1v22.5h3.1v-28.6h-4.9
				l-9.1,16.8h-1l-9.1-16.8h-4.7V166.3z"/>
		</g>
	</g>
	<line class="st2" x1="326" y1="0" x2="326" y2="193.9"/>
</g>
</svg>
